<svg width="100%" height="100%" viewBox="0 0 52 64" fill="none" xmlns="http://www.w3.org/2000/svg">
<path d="M6.98644 57V55.836L9.87844 53.376C10.4704 52.88 10.8784 52.472 11.1024 52.152C11.3344 51.824 11.4504 51.476 11.4504 51.108C11.4504 50.708 11.3224 50.392 11.0664 50.16C10.8104 49.92 10.4864 49.8 10.0944 49.8C9.72644 49.8 9.39444 49.9 9.09844 50.1C8.81044 50.3 8.49444 50.62 8.15044 51.06L7.10644 50.244C7.53844 49.636 7.98244 49.192 8.43844 48.912C8.90244 48.624 9.49044 48.48 10.2024 48.48C11.0264 48.48 11.6944 48.712 12.2064 49.176C12.7184 49.64 12.9744 50.252 12.9744 51.012C12.9744 51.34 12.9344 51.636 12.8544 51.9C12.7744 52.156 12.6304 52.42 12.4224 52.692C12.2224 52.956 12.0024 53.2 11.7624 53.424C11.5304 53.64 11.2064 53.92 10.7904 54.264L9.06244 55.704H13.0584V57H6.98644ZM17.5978 57.144C16.6618 57.144 15.8818 56.824 15.2578 56.184C14.6338 55.544 14.3218 54.764 14.3218 53.844C14.3218 52.932 14.6338 52.152 15.2578 51.504C15.8898 50.856 16.6738 50.532 17.6098 50.532C18.6338 50.532 19.4778 50.896 20.1418 51.624L19.2418 52.596C18.7378 52.068 18.1898 51.804 17.5978 51.804C17.0778 51.804 16.6418 52.004 16.2898 52.404C15.9458 52.796 15.7738 53.276 15.7738 53.844C15.7738 54.42 15.9498 54.904 16.3018 55.296C16.6618 55.688 17.1178 55.884 17.6698 55.884C18.2538 55.884 18.8018 55.62 19.3138 55.092L20.1898 55.956C19.8458 56.34 19.4698 56.636 19.0618 56.844C18.6618 57.044 18.1738 57.144 17.5978 57.144ZM24.3615 57.144C23.4015 57.144 22.6015 56.824 21.9615 56.184C21.3215 55.544 21.0015 54.764 21.0015 53.844C21.0015 52.924 21.3255 52.144 21.9735 51.504C22.6215 50.856 23.4255 50.532 24.3855 50.532C25.3455 50.532 26.1455 50.852 26.7855 51.492C27.4335 52.132 27.7575 52.916 27.7575 53.844C27.7575 54.756 27.4335 55.536 26.7855 56.184C26.1375 56.824 25.3295 57.144 24.3615 57.144ZM24.3855 55.884C24.9615 55.884 25.4255 55.688 25.7775 55.296C26.1295 54.904 26.3055 54.42 26.3055 53.844C26.3055 53.276 26.1215 52.796 25.7535 52.404C25.3855 52.004 24.9215 51.804 24.3615 51.804C23.7935 51.804 23.3335 52 22.9815 52.392C22.6295 52.784 22.4535 53.268 22.4535 53.844C22.4535 54.404 22.6375 54.884 23.0055 55.284C23.3735 55.684 23.8335 55.884 24.3855 55.884ZM29.3202 57V48.24H30.7722V57H29.3202ZM35.6818 57.144C34.7218 57.144 33.9218 56.824 33.2818 56.184C32.6418 55.544 32.3218 54.764 32.3218 53.844C32.3218 52.924 32.6458 52.144 33.2938 51.504C33.9418 50.856 34.7458 50.532 35.7058 50.532C36.6658 50.532 37.4658 50.852 38.1058 51.492C38.7538 52.132 39.0778 52.916 39.0778 53.844C39.0778 54.756 38.7538 55.536 38.1058 56.184C37.4578 56.824 36.6498 57.144 35.6818 57.144ZM35.7058 55.884C36.2818 55.884 36.7458 55.688 37.0978 55.296C37.4498 54.904 37.6258 54.42 37.6258 53.844C37.6258 53.276 37.4418 52.796 37.0738 52.404C36.7058 52.004 36.2418 51.804 35.6818 51.804C35.1138 51.804 34.6538 52 34.3018 52.392C33.9498 52.784 33.7738 53.268 33.7738 53.844C33.7738 54.404 33.9578 54.884 34.3258 55.284C34.6938 55.684 35.1538 55.884 35.7058 55.884ZM40.5565 57V50.664H42.0085V52.092C42.4565 51.012 43.2045 50.496 44.2525 50.544V52.08H44.1685C43.5125 52.08 42.9885 52.296 42.5965 52.728C42.2045 53.152 42.0085 53.772 42.0085 54.588V57H40.5565Z" fill="#B9C2EB"/>
<path d="M16.0252 40C16.343 40 16.6419 39.8489 16.8304 39.5931L25.7143 27.5325L12.2008 2.21176C11.7753 1.41454 10.5945 1.54579 10.3545 2.41698L0.34869 38.7344C0.173266 39.3711 0.652321 40 1.31277 40H16.0252Z" fill="url(#paint0_linear)"/>
<path d="M39.2278 2.21176C39.6532 1.41454 40.8341 1.54578 41.0741 2.41698L51.0799 38.7344C51.2553 39.3711 50.7763 40 50.1158 40H35.4034C35.0856 40 34.7867 39.8489 34.5982 39.5931L25.7143 27.5325L39.2278 2.21176Z" fill="#B9C2EB"/>
<defs>
<linearGradient id="paint0_linear" x1="12.8571" y1="0" x2="12.8571" y2="40" gradientUnits="userSpaceOnUse">
<stop stop-color="#397EAA"/>
<stop offset="0.515625" stop-color="#91B1C8"/>
<stop offset="1" stop-color="#AD48D0"/>
</linearGradient>
</defs>
</svg>
